<!-- <svg viewBox="0 0 1190.55 669.69" xmlns="http://www.w3.org/2000/svg"><g fill="#fff"><path d="m627.36 310.07c-9.65 0-17.38 2.92-23 8.69v-43.2l-25 8.87v108.39h25v-6.47c5.63 5.77 13.35 8.69 23 8.69 21.61 0 38.53-18.66 38.53-42.49s-16.89-42.48-38.53-42.48zm13.31 42.46a18.07 18.07 0 1 1 -18.06-18.06 18.08 18.08 0 0 1 18.06 18.06z"/><path d="m547.47 356.2c0 10.13-5 15.71-14.12 15.71-9.71 0-13.17-7.13-13.17-13.8v-45.82h-25v49.3c0 23.11 15.2 33.45 30.27 33.45 9.35 0 17.27-3.08 22.05-8.52v6.3h25v-80.53h-25z"/><path d="m1013.94 310.07a29.59 29.59 0 0 0 -22.05 9.77v-7.55h-25v80.53h25v-43.91c0-10.13 5-15.71 14.12-15.71 9.71 0 13.17 7.13 13.17 13.81v45.81h25v-49.3c.04-23.11-15.18-33.45-30.24-33.45z"/><path d="m740.22 282.86-25 8.83v13.81a6.8 6.8 0 0 1 -6.79 6.79h-5.9v24.08h12.69v29.79c0 16.82 9.64 27.27 25.16 27.27a49.22 49.22 0 0 0 14.22-2.14l.43-.14v-24.45l-.9.45a16.67 16.67 0 0 1 -6.74 1.34c-4.7 0-7.08-2.62-7.08-7.79v-24.33h16.24v-24.08h-16.24z"/><path d="m703.68 368.49c-4.7 0-7.09-2.62-7.09-7.79v-85.14l-25.13 8.82v81.78c0 16.82 9.65 27.27 25.17 27.27a49.82 49.82 0 0 0 9.92-1.05l.5-.1v-24.1l-.71.1a17.64 17.64 0 0 1 -2.66.21z"/><path d="m802.43 310.07a42.46 42.46 0 1 0 42.47 42.46 42.51 42.51 0 0 0 -42.47-42.46zm18.07 42.46a18.07 18.07 0 1 1 -18.07-18.06 18.09 18.09 0 0 1 18.07 18.06z"/><path d="m451 310.07c-9.65 0-17.37 2.92-23 8.69v-43.2l-25 8.87v108.39h25v-6.47c5.63 5.77 13.36 8.69 23 8.69 21.61 0 38.53-18.66 38.53-42.49s-16.88-42.48-38.53-42.48zm13.31 42.46a18.06 18.06 0 1 1 -18.06-18.06 18.08 18.08 0 0 1 18.1 18.06z"/><path d="m935.94 312.05-10.19 39.88-12.28-39.88h-22.59l-12.29 39.88-10.18-39.88h-28.14l25.37 80.77h23.91l12.62-38.68 12.63 38.68h23.91l25.36-80.77z"/><path d="m244.61 263.25-25-15.36-7.61 12.37 14.74 9.06-14.74 8.68 7.6 12.39 24.91-14.7a7.27 7.27 0 0 0 .11-12.45z"/><path d="m368.33 271.1-19.82 4.06a29.08 29.08 0 0 1 -22.65 34.32 30.22 30.22 0 0 1 -3.51.49 121.2 121.2 0 0 0 3.65-29.91 77.41 77.41 0 0 0 -154.81-.46 75 75 0 0 0 .9 16.27 46.81 46.81 0 0 0 -3.33 81.71l10.55-17.25a26.58 26.58 0 0 1 -2.23-43.82c6.2 18.85 18.61 43.55 43.26 71.26a269.94 269.94 0 0 1 -50.49 15.34 10.11 10.11 0 0 0 -7.38 13.61l15.18 38.71 18.85-7.43-10.86-27.72a275.76 275.76 0 0 0 49.69-16.91c16.57 16.2 37.37 33.19 63.52 50.45a10.11 10.11 0 0 0 14.92-4.58l13.86-33.6-18.7-7.64-9.12 22.1a408.3 408.3 0 0 1 -45.42-36.52c28.5-16.64 49.23-38.23 60.85-63.48 1.58.15 3.16.23 4.75.23a49.68 49.68 0 0 0 9.92-1 49.32 49.32 0 0 0 38.42-58.2zm-102.33 89.76a165.92 165.92 0 0 1 -26.49 17.75c-14.34-15.42-27.09-32.56-36.07-51.11a120 120 0 0 1 -11.35-36.05c-1.69-12.65-.29-25.66 5.51-37.13a57.83 57.83 0 0 1 22.7-23.92 57.16 57.16 0 0 1 85.5 49.66c0 31.69-13.4 58.87-39.8 80.8z"/><path d="m264 310.91a19.79 19.79 0 0 1 -30-12.17l-17.9 10.54a40 40 0 0 0 58.9 18.59z"/></g></svg> -->
<svg id="Layer_1" data-name="Layer 1" xmlns="http://www.w3.org/2000/svg" viewBox="0 0 891.63 986.57"><path d="M76.48,985a8.21,8.21,0,0,1-4.65-1.26A6.62,6.62,0,0,1,69.18,980l-2.29-7.55a59.52,59.52,0,0,1-6.23,5.75,41,41,0,0,1-7,4.45,38.64,38.64,0,0,1-8.14,2.88,41.57,41.57,0,0,1-9.43,1A30.57,30.57,0,0,1,21.68,983a33.14,33.14,0,0,1-11.43-9.94,51.16,51.16,0,0,1-7.53-16A77.94,77.94,0,0,1,0,935.6,66.29,66.29,0,0,1,3.24,915a51.19,51.19,0,0,1,8.65-16.51,40.65,40.65,0,0,1,13.47-10.85,38.17,38.17,0,0,1,17.34-3.94,33.36,33.36,0,0,1,12.92,2.26,37.65,37.65,0,0,1,9.69,5.88V841.37H95V984.85ZM46.38,963.7a27.27,27.27,0,0,0,5.91-.62,21.52,21.52,0,0,0,4.81-1.77,22,22,0,0,0,4.2-2.88,41,41,0,0,0,3.88-4V912.22a19.51,19.51,0,0,0-7.33-5.2,22.55,22.55,0,0,0-8.21-1.48,17.27,17.27,0,0,0-7.55,1.61,15.57,15.57,0,0,0-6,5.26,28.19,28.19,0,0,0-4,9.34,56.85,56.85,0,0,0-1.45,13.88,63.2,63.2,0,0,0,1.16,13.24,26.91,26.91,0,0,0,3.23,8.66A12.07,12.07,0,0,0,40,962.28,14.14,14.14,0,0,0,46.38,963.7Z" style="fill:#ec3a94"/><path d="M154.67,884.06a50.67,50.67,0,0,1,18.08,3.07A39,39,0,0,1,186.83,896,40.27,40.27,0,0,1,196,910.35a52.85,52.85,0,0,1,3.22,19.21A39.8,39.8,0,0,1,199,935a8.38,8.38,0,0,1-1,3.23,4,4,0,0,1-2.07,1.74,9.56,9.56,0,0,1-3.23.49H135.32q1.45,12.46,7.56,18a22.57,22.57,0,0,0,15.82,5.62,28.11,28.11,0,0,0,8.92-1.26,43.45,43.45,0,0,0,6.65-2.78l5.36-2.77a11.09,11.09,0,0,1,5.13-1.26,6.15,6.15,0,0,1,5.37,2.58l8.62,10.66a43.88,43.88,0,0,1-9.92,8.56,51.25,51.25,0,0,1-10.91,5.19,61.58,61.58,0,0,1-11.21,2.59,84.79,84.79,0,0,1-10.69.71,56,56,0,0,1-19.6-3.39,45.33,45.33,0,0,1-16.15-10.11,48.06,48.06,0,0,1-10.82-16.7,62.34,62.34,0,0,1-4-23.18,52.46,52.46,0,0,1,3.23-18.86,46,46,0,0,1,25.22-26.29A51,51,0,0,1,154.67,884.06Zm.58,20.51a17.85,17.85,0,0,0-13.31,4.84,25.14,25.14,0,0,0-6.46,13.92h37.08a25.8,25.8,0,0,0-.91-6.88,17,17,0,0,0-3-6,15,15,0,0,0-5.42-4.26,18.76,18.76,0,0,0-7.88-1.61Z" style="fill:#ec3a94"/><path d="M210.63,985v-99.4H229a8.14,8.14,0,0,1,4.65,1.26,6.63,6.63,0,0,1,2.65,3.74l1.61,5.36a50.43,50.43,0,0,1,5.17-4.74,34.5,34.5,0,0,1,5.81-3.75,31.57,31.57,0,0,1,14.6-3.23,23.39,23.39,0,0,1,14.92,4.65,29.08,29.08,0,0,1,8.95,12.4,29.62,29.62,0,0,1,6.1-7.84,32.08,32.08,0,0,1,7.75-5.3,38.66,38.66,0,0,1,8.82-3,47.25,47.25,0,0,1,9.27-.94,42.09,42.09,0,0,1,15.11,2.52,29.06,29.06,0,0,1,11.08,7.4A31.54,31.54,0,0,1,352.37,906a50.73,50.73,0,0,1,2.33,15.95v63.17H325V921.81c0-10.27-4.43-15.43-13.24-15.43a13.55,13.55,0,0,0-10,4,15.65,15.65,0,0,0-4,11.46V985H268.05V921.81a17,17,0,0,0-3.23-12,13.12,13.12,0,0,0-9.88-3.45,16.45,16.45,0,0,0-7.62,1.84,28,28,0,0,0-6.75,4.87V985Z" style="fill:#ec3a94"/><path d="M414.18,884.06a56.83,56.83,0,0,1,20.61,3.55,44.26,44.26,0,0,1,26.32,26.29,58.2,58.2,0,0,1,3.68,21.22,59.19,59.19,0,0,1-3.68,21.44,45.63,45.63,0,0,1-10.37,16.15A45,45,0,0,1,434.79,983a56.85,56.85,0,0,1-20.61,3.58A57.49,57.49,0,0,1,393.45,983a46.3,46.3,0,0,1-16.15-10.27,45.25,45.25,0,0,1-10.43-16.15,59.19,59.19,0,0,1-3.68-21.44,58.2,58.2,0,0,1,3.68-21.22,45.33,45.33,0,0,1,10.43-16.15,46.53,46.53,0,0,1,16.15-10.14A57.46,57.46,0,0,1,414.18,884.06Zm0,80.41a16.89,16.89,0,0,0,15.12-7.26q4.84-7.25,4.84-22c0-9.68-1.61-17.14-4.84-21.92a17,17,0,0,0-15.12-7.21,17.4,17.4,0,0,0-15.43,7.21c-3.23,4.78-4.88,12.11-4.88,21.92s1.65,17.18,4.88,22A17.31,17.31,0,0,0,414.18,964.47Z" style="fill:#ec3a94"/><path d="M510.23,986.5a34.93,34.93,0,0,1-12.53-2.07,24.83,24.83,0,0,1-9.08-5.84,24.38,24.38,0,0,1-5.62-9.14,35.15,35.15,0,0,1-1.9-12V906h-8.46a5.4,5.4,0,0,1-5.57-5.21,4.53,4.53,0,0,1,0-.64V888.52l15.83-3.07,5.84-24.25a5.94,5.94,0,0,1,6.46-4.59h15.53v29.06h24.13V906H510.74v49.37a9.37,9.37,0,0,0,1.65,5.69,5.66,5.66,0,0,0,4.85,2.26,8.91,8.91,0,0,0,4.65-1.1l1.55-.77a3.71,3.71,0,0,1,1.68-.33,3.26,3.26,0,0,1,2.13.62,7.09,7.09,0,0,1,1.68,2l9,14.08A40.49,40.49,0,0,1,525,984.2,51.19,51.19,0,0,1,510.23,986.5Z" style="fill:#ec3a94"/><path d="M590.51,884.06a56.83,56.83,0,0,1,20.61,3.55,44.24,44.24,0,0,1,26.32,26.19A58.41,58.41,0,0,1,641.12,935a59.15,59.15,0,0,1-3.68,21.44,46.06,46.06,0,0,1-10.34,16.15,45.16,45.16,0,0,1-16,10.27,56.86,56.86,0,0,1-20.61,3.59,57.5,57.5,0,0,1-20.73-3.59,46.3,46.3,0,0,1-16.15-10.27,45.25,45.25,0,0,1-10.43-16.15A59.12,59.12,0,0,1,539.68,935a58.2,58.2,0,0,1,3.68-21.22,45.3,45.3,0,0,1,10.43-16.14,46.15,46.15,0,0,1,16.15-10.14A57.47,57.47,0,0,1,590.51,884.06Zm0,80.41a16.89,16.89,0,0,0,15.12-7.26q4.83-7.25,4.84-22c0-9.68-1.62-17.14-4.84-21.92a17,17,0,0,0-15.12-7.21,17.34,17.34,0,0,0-15.4,7.21c-3.23,4.78-4.91,12.11-4.91,21.92s1.65,17.18,4.91,22A17.24,17.24,0,0,0,590.51,964.47Z" style="fill:#ec3a94"/><path d="M640.15,885.58h23.77a10.12,10.12,0,0,1,5.49,1.45,5.71,5.71,0,0,1,2.77,3.71l10,44.57q1.17,5.07,2.13,9.88c.62,3.23,1.2,6.46,1.71,9.5.91-3.23,1.84-6.3,2.85-9.43s1.93-6.46,2.9-10l12.47-44.63A6.43,6.43,0,0,1,707,887a9.06,9.06,0,0,1,5.08-1.49h13.24a9.61,9.61,0,0,1,5.39,1.49,6.44,6.44,0,0,1,2.84,3.71l11.89,44.63q1.35,5.07,2.71,9.88t2.65,9.69c.51-3.23,1.13-6.46,1.87-9.53s1.52-6.45,2.36-10l10.52-44.57a5.68,5.68,0,0,1,2.75-3.71,9.14,9.14,0,0,1,5.1-1.45H796L765.09,985H740.94a4.89,4.89,0,0,1-3.23-1.16,7.94,7.94,0,0,1-2.1-3.85l-14.18-49.54c-.64-2.22-1.26-4.42-1.81-6.62s-1.09-4.32-1.55-6.45c-.45,2.22-.93,4.42-1.48,6.65s-1.16,4.42-1.87,6.65L700.34,980a6.12,6.12,0,0,1-6.45,5h-23Z" style="fill:#ec3a94"/><path d="M801.75,985v-99.4h18.37a8,8,0,0,1,4.66,1.26,6.56,6.56,0,0,1,2.64,3.74l1.71,5.75a74.58,74.58,0,0,1,6-5,35.82,35.82,0,0,1,6.46-3.88,38.39,38.39,0,0,1,7.55-2.49,40.8,40.8,0,0,1,8.88-.9,34.79,34.79,0,0,1,14.41,2.81A30,30,0,0,1,883,894.75a34.09,34.09,0,0,1,6.46,12,49.73,49.73,0,0,1,2.19,15.08V985H861.91V921.81a17.26,17.26,0,0,0-3.23-11.37,12,12,0,0,0-9.85-4.06,20.4,20.4,0,0,0-9.2,2.13,34.11,34.11,0,0,0-8.23,5.65V985Z" style="fill:#ec3a94"/><circle cx="445.44" cy="398.22" r="398.22" style="fill:#ec3a94"/><path d="M548.59,635.59a29.52,29.52,0,0,1-16.79-4.49,23.92,23.92,0,0,1-9.53-13.5l-8.43-27.35A210.49,210.49,0,0,1,491.24,611a140.18,140.18,0,0,1-25.45,16.15,134.07,134.07,0,0,1-29.42,10.4,151.59,151.59,0,0,1-33.84,3.58,110.63,110.63,0,0,1-51.93-12.46,119.77,119.77,0,0,1-41.18-36,181.51,181.51,0,0,1-27.19-57.65,278.82,278.82,0,0,1-9.85-77.7,241.66,241.66,0,0,1,11.08-74.56,182.6,182.6,0,0,1,31.32-59.56A145.39,145.39,0,0,1,363.42,284a137.94,137.94,0,0,1,62.65-14.2A120.4,120.4,0,0,1,473,277.89a136.62,136.62,0,0,1,34.78,21.29V117.42H615.06V635.59Zm-108.7-76.83a91.73,91.73,0,0,0,21.28-2.26A75.5,75.5,0,0,0,478.68,550a77.46,77.46,0,0,0,15.05-10.4,132.61,132.61,0,0,0,14-14.53V372.87A71,71,0,0,0,481.26,354a82,82,0,0,0-29.58-5.36,63.5,63.5,0,0,0-27.36,5.88,55.72,55.72,0,0,0-21.63,18.86,100.46,100.46,0,0,0-14.37,33.75,209.57,209.57,0,0,0-5.2,50.18,231.88,231.88,0,0,0,4.16,47.76,97.9,97.9,0,0,0,11.6,31.33,45.22,45.22,0,0,0,17.82,17.15A51.19,51.19,0,0,0,439.89,558.76Z" style="fill:#fff"/></svg>